<svg width="116" height="24" viewBox="0 0 116 24" fill="none" xmlns="http://www.w3.org/2000/svg">
<path fill-rule="evenodd" clip-rule="evenodd" d="M5.81744 0C2.60456 0 0 2.54324 0 5.68047V18.3195C0 21.4568 2.60456 24 5.81744 24H18.7612C21.9741 24 24.5787 21.4568 24.5787 18.3195V5.68047C24.5787 2.54324 21.9741 0 18.7612 0H5.81744ZM22.2517 4.68639H6.92659C5.65988 4.68639 4.5766 5.1284 3.67675 6.01243C2.7769 6.89645 2.32698 7.96068 2.32698 9.20512V10.2864H5.83639V9.20512C5.83639 8.91271 5.94367 8.66111 6.15826 8.4503C6.37283 8.23949 6.62895 8.13409 6.92659 8.13409H22.2517V4.68639ZM3.67675 11.6124C2.7769 12.4896 2.32698 13.5538 2.32698 14.8051C2.32698 16.0495 2.7769 17.1137 3.67675 17.9978C4.5766 18.875 5.65988 19.3136 6.92659 19.3136H22.2517V15.8659H6.92659C6.62895 15.8659 6.37283 15.7639 6.15826 15.5599C5.94367 15.3491 5.83639 15.0975 5.83639 14.8051C5.83639 14.5127 5.94367 14.2577 6.15826 14.0401C6.37283 13.8225 6.62895 13.7136 6.92659 13.7136H22.2517V10.2864H6.92659C5.65988 10.2864 4.5766 10.7284 3.67675 11.6124Z" fill="url(#paint0_angular_1052_570)"/>
<path d="M32.373 6.54483C32.373 6.26869 32.5969 6.04483 32.873 6.04483H44.9547C45.2309 6.04483 45.4547 6.26869 45.4547 6.54483V9.15386C45.4547 9.43 45.2309 9.65386 44.9547 9.65386H37.4693C37.1932 9.65386 36.9693 9.87771 36.9693 10.1539V10.2366C36.9693 10.5127 37.1932 10.7366 37.4693 10.7366H44.7779C45.0541 10.7366 45.2779 10.9604 45.2779 11.2366V13.4847C45.2779 13.7608 45.0541 13.9847 44.7779 13.9847H37.4693C37.1932 13.9847 36.9693 14.2085 36.9693 14.4847V14.5674C36.9693 14.8435 37.1932 15.0674 37.4693 15.0674H44.9547C45.2309 15.0674 45.4547 15.2912 45.4547 15.5674V18.1764C45.4547 18.4526 45.2309 18.6764 44.9547 18.6764H32.873C32.5969 18.6764 32.373 18.4526 32.373 18.1764V6.54483Z" fill="#F2F2F2"/>
<path d="M56.1896 8.16039C56.2664 7.97228 56.4494 7.84935 56.6525 7.84935H60.1687C60.5239 7.84935 60.7659 8.20941 60.6316 8.5383L56.6203 18.3654C56.5435 18.5535 56.3606 18.6764 56.1574 18.6764H50.4652C50.2621 18.6764 50.0791 18.5535 50.0023 18.3654L45.991 8.5383C45.8568 8.20941 46.0987 7.84935 46.454 7.84935H49.9701C50.1733 7.84935 50.3563 7.97228 50.433 8.16039L52.8484 14.0777C53.0177 14.4924 53.605 14.4924 53.7742 14.0777L56.1896 8.16039Z" fill="#F2F2F2"/>
<path d="M69.2861 12.1802C69.6485 12.1802 69.8785 11.8019 69.61 11.5584C69.1385 11.1308 68.4157 10.917 67.4415 10.917C66.4673 10.917 65.7445 11.1308 65.273 11.5584C65.0045 11.8019 65.2345 12.1802 65.597 12.1802H69.2861ZM74.495 13.6238C74.4646 13.8311 74.2867 13.9847 74.0772 13.9847H65.3842C65.0567 13.9847 64.8142 14.3011 64.9869 14.5793C65.4129 15.2656 66.2311 15.6087 67.4415 15.6087C68.4207 15.6087 69.1507 15.3687 69.6313 14.8885C69.74 14.7799 69.8824 14.7065 70.0361 14.7065H73.7105C74.031 14.7065 74.27 15.0055 74.1661 15.3087C73.3552 17.6742 71.1137 18.8569 67.4415 18.8569C65.1316 18.8569 63.3638 18.3636 62.1381 17.3772C60.9596 16.4148 60.3703 15.0433 60.3703 13.2629C60.3703 11.4824 60.9596 10.111 62.1381 9.14859C63.3638 8.16213 65.1316 7.66889 67.4415 7.66889C69.7632 7.66889 71.531 8.16213 72.7449 9.14859C73.9234 10.111 74.5127 11.4824 74.5127 13.2629C74.5127 13.3712 74.5068 13.4915 74.495 13.6238Z" fill="#F2F2F2"/>
<path d="M79.6189 8.20658C79.6189 8.52333 80.0167 8.69898 80.2822 8.52638C81.1619 7.95472 82.296 7.66889 83.6848 7.66889C85.4761 7.66889 86.8432 8.14408 87.7861 9.09446C88.7053 10.0208 89.1649 11.3441 89.1649 13.0644V18.1764C89.1649 18.4526 88.9411 18.6764 88.6649 18.6764H85.4222C85.1461 18.6764 84.9222 18.4526 84.9222 18.1764V13.0644C84.9222 11.8253 84.0383 11.2057 82.2705 11.2057C80.5027 11.2057 79.6189 11.8253 79.6189 13.0644V18.1764C79.6189 18.4526 79.395 18.6764 79.1189 18.6764H75.8761C75.6 18.6764 75.3761 18.4526 75.3761 18.1764V8.34935C75.3761 8.0732 75.6 7.84935 75.8761 7.84935H79.2616C79.4589 7.84935 79.6189 8.00929 79.6189 8.20658Z" fill="#F2F2F2"/>
<path d="M100.018 15.1329C100.334 15.0811 100.631 15.3178 100.631 15.6382V18.214C100.631 18.4516 100.464 18.6576 100.23 18.6962C99.5788 18.8033 98.8876 18.8569 98.1561 18.8569C96.0583 18.8569 94.5439 18.5501 93.6129 17.9366C92.6347 17.2869 92.1456 16.2102 92.1456 14.7065V11.9584C92.1456 11.6822 91.9217 11.4584 91.6456 11.4584H90.1707C89.8945 11.4584 89.6707 11.2345 89.6707 10.9584V8.34935C89.6707 8.0732 89.8945 7.84935 90.1707 7.84935H91.6456C91.9217 7.84935 92.1456 7.62549 92.1456 7.34935V6.44968C92.1456 6.21362 92.3107 6.00972 92.5416 5.96062L95.7843 5.27103C96.0953 5.20488 96.3883 5.44209 96.3883 5.76009V7.34934C96.3883 7.62549 96.6122 7.84935 96.8883 7.84935H100.131C100.407 7.84935 100.631 8.0732 100.631 8.34935V10.9584C100.631 11.2345 100.407 11.4584 100.131 11.4584H96.8883C96.6122 11.4584 96.3883 11.6822 96.3883 11.9584V14.1651C96.3883 14.5862 96.5887 14.8749 96.9894 15.0313C97.3311 15.1757 97.8968 15.2478 98.6864 15.2478C99.1071 15.2478 99.5508 15.2095 100.018 15.1329Z" fill="#F2F2F2"/>
<path d="M111.277 8.16039C111.354 7.97228 111.537 7.84935 111.74 7.84935H115.256C115.611 7.84935 115.853 8.20927 115.719 8.53814L110.24 21.9742C110.163 22.1624 109.98 22.2854 109.777 22.2854H106.26C105.905 22.2854 105.663 21.9259 105.797 21.5971L106.704 19.3647C106.838 19.0359 106.596 18.6764 106.241 18.6764H105.552C105.349 18.6764 105.166 18.5535 105.09 18.3654L101.078 8.5383C100.944 8.20941 101.186 7.84935 101.541 7.84935H105.057C105.26 7.84935 105.443 7.97228 105.52 8.16039L107.936 14.0777C108.105 14.4924 108.692 14.4924 108.861 14.0777L111.277 8.16039Z" fill="#F2F2F2"/>
<defs>
<radialGradient id="paint0_angular_1052_570" cx="0" cy="0" r="1" gradientUnits="userSpaceOnUse" gradientTransform="translate(12.2166 12.071) rotate(42.8245) scale(35.0979 35.0444)">
<stop stop-color="#EDFC74"/>
<stop offset="0.552083" stop-color="#CBABFF"/>
</radialGradient>
</defs>
</svg>
