<svg width="136" height="28" viewBox="0 0 136 28" fill="none" xmlns="http://www.w3.org/2000/svg">
<path fill-rule="evenodd" clip-rule="evenodd" d="M6.81728 0C3.0522 0 0 2.96711 0 6.62722V21.3728C0 25.0329 3.0522 28 6.81728 28H21.9857C25.7508 28 28.803 25.0329 28.803 21.3728V6.62722C28.803 2.96711 25.7508 0 21.9857 0H6.81728ZM26.0761 5.46746H8.11706C6.63264 5.46746 5.36318 5.98314 4.30867 7.0145C3.25417 8.04586 2.72691 9.28747 2.72691 10.7393V12.0007H6.83949V10.7393C6.83949 10.3982 6.96522 10.1046 7.21668 9.85868C7.46814 9.61274 7.76827 9.48977 8.11706 9.48977H26.0761V5.46746ZM4.30867 13.5478C3.25417 14.5712 2.72691 15.8128 2.72691 17.2726C2.72691 18.7244 3.25417 19.966 4.30867 20.9974C5.36318 22.0208 6.63264 22.5325 8.11706 22.5325H26.0761V18.5102H8.11706C7.76827 18.5102 7.46814 18.3912 7.21668 18.1532C6.96522 17.9073 6.83949 17.6137 6.83949 17.2726C6.83949 16.9315 6.96522 16.6339 7.21668 16.3801C7.46814 16.1262 7.76827 15.9993 8.11706 15.9993H26.0761V12.0007H8.11706C6.63264 12.0007 5.36318 12.5164 4.30867 13.5478Z" fill="url(#paint0_angular_954_3701)"/>
<path d="M37.9375 7.55263C37.9375 7.27649 38.1614 7.05263 38.4375 7.05263H52.7675C53.0437 7.05263 53.2675 7.27649 53.2675 7.55263V10.7632C53.2675 11.0393 53.0437 11.2632 52.7675 11.2632H43.8237C43.5476 11.2632 43.3237 11.487 43.3237 11.7632V12.0263C43.3237 12.3025 43.5476 12.5263 43.8237 12.5263H52.5604C52.8365 12.5263 53.0604 12.7502 53.0604 13.0263V15.8158C53.0604 16.0919 52.8365 16.3158 52.5604 16.3158H43.8237C43.5476 16.3158 43.3237 16.5396 43.3237 16.8158V17.0789C43.3237 17.3551 43.5476 17.5789 43.8237 17.5789H52.7675C53.0437 17.5789 53.2675 17.8028 53.2675 18.0789V21.2895C53.2675 21.5656 53.0437 21.7895 52.7675 21.7895H38.4375C38.1614 21.7895 37.9375 21.5656 37.9375 21.2895V7.55263Z" fill="#F2F2F2"/>
<path d="M65.869 9.46821C65.9459 9.28049 66.1287 9.1579 66.3316 9.1579H70.637C70.9926 9.1579 71.2345 9.51858 71.0997 9.84758L66.3306 21.4792C66.2536 21.6669 66.0709 21.7895 65.868 21.7895H59.0809C58.878 21.7895 58.6952 21.6669 58.6183 21.4792L53.8492 9.84757C53.7143 9.51858 53.9563 9.1579 54.3119 9.1579H58.6173C58.8202 9.1579 59.0029 9.2805 59.0799 9.46821L62.0118 16.619C62.1815 17.0328 62.7674 17.0328 62.9371 16.619L65.869 9.46821Z" fill="#F2F2F2"/>
<path d="M81.326 14.2105C81.6888 14.2105 81.9215 13.8329 81.6672 13.5741C81.1188 13.0159 80.2408 12.7368 79.0332 12.7368C77.8256 12.7368 76.9476 13.0159 76.3992 13.5741C76.1449 13.8329 76.3776 14.2105 76.7404 14.2105H81.326ZM87.299 15.8947C87.2633 16.1366 87.0557 16.3158 86.8112 16.3158H76.5117C76.1841 16.3158 75.9421 16.6308 76.102 16.9169C76.584 17.7793 77.5611 18.2105 79.0332 18.2105C80.2009 18.2105 81.066 17.9205 81.6287 17.3406C81.7355 17.2306 81.8779 17.1579 82.0312 17.1579H86.4865C86.8072 17.1579 87.0461 17.4566 86.9467 17.7616C86.0255 20.5872 83.3877 22 79.0332 22C76.3263 22 74.2547 21.4246 72.8183 20.2737C71.4372 19.1509 70.7467 17.5509 70.7467 15.4737C70.7467 13.3965 71.4372 11.7965 72.8183 10.6737C74.2547 9.52281 76.3263 8.94737 79.0332 8.94737C81.7539 8.94737 83.8256 9.52281 85.2481 10.6737C86.6292 11.7965 87.3197 13.3965 87.3197 15.4737C87.3197 15.6 87.3128 15.7404 87.299 15.8947Z" fill="#F2F2F2"/>
<path d="M93.3035 9.57559C93.3035 9.94549 93.7674 10.1509 94.0778 9.94973C95.1091 9.28149 96.4392 8.94737 98.0682 8.94737C100.167 8.94737 101.77 9.50175 102.874 10.6105C103.952 11.6912 104.49 13.2351 104.49 15.2421V21.2895C104.49 21.5656 104.266 21.7895 103.99 21.7895H100.018C99.7422 21.7895 99.5183 21.5656 99.5183 21.2895V15.2421C99.5183 13.7965 98.4825 13.0737 96.4109 13.0737C94.3393 13.0737 93.3035 13.7965 93.3035 15.2421V21.2895C93.3035 21.5656 93.0796 21.7895 92.8035 21.7895H88.8316C88.5554 21.7895 88.3316 21.5656 88.3316 21.2895V9.65789C88.3316 9.38175 88.5554 9.1579 88.8316 9.1579H92.8858C93.1165 9.1579 93.3035 9.3449 93.3035 9.57559Z" fill="#F2F2F2"/>
<path d="M117.315 17.6375C117.63 17.583 117.927 17.8199 117.927 18.1401V21.3177C117.927 21.5555 117.76 21.7614 117.525 21.8011C116.743 21.9337 115.91 22 115.027 22C112.568 22 110.794 21.6421 109.703 20.9263C108.556 20.1684 107.983 18.9123 107.983 17.1579V13.8684C107.983 13.5923 107.759 13.3684 107.483 13.3684H105.583C105.307 13.3684 105.083 13.1446 105.083 12.8684V9.6579C105.083 9.38175 105.307 9.1579 105.583 9.1579H107.483C107.759 9.1579 107.983 8.93404 107.983 8.6579V7.45786C107.983 7.22163 108.149 7.01763 108.38 6.9687L112.352 6.12778C112.662 6.06196 112.955 6.29912 112.955 6.61694V8.6579C112.955 8.93404 113.179 9.1579 113.455 9.1579H117.427C117.703 9.1579 117.927 9.38175 117.927 9.6579V12.8684C117.927 13.1446 117.703 13.3684 117.427 13.3684H113.455C113.179 13.3684 112.955 13.5923 112.955 13.8684V16.5263C112.955 17.0175 113.19 17.3544 113.659 17.5368C114.06 17.7053 114.723 17.7895 115.648 17.7895C116.173 17.7895 116.729 17.7388 117.315 17.6375Z" fill="#F2F2F2"/>
<path d="M130.424 9.46821C130.501 9.2805 130.684 9.1579 130.887 9.1579H135.192C135.548 9.1579 135.79 9.51844 135.655 9.84741L129.166 25.6895C129.089 25.8773 128.906 26 128.703 26H124.397C124.042 26 123.8 25.6399 123.934 25.311L125.091 22.4785C125.225 22.1496 124.983 21.7895 124.628 21.7895H123.636C123.433 21.7895 123.25 21.6669 123.173 21.4792L118.404 9.84757C118.269 9.51858 118.511 9.1579 118.867 9.1579H123.172C123.375 9.1579 123.558 9.2805 123.635 9.46821L126.567 16.619C126.737 17.0328 127.322 17.0328 127.492 16.619L130.424 9.46821Z" fill="#F2F2F2"/>
<defs>
<radialGradient id="paint0_angular_954_3701" cx="0" cy="0" r="1" gradientUnits="userSpaceOnUse" gradientTransform="translate(14.3163 14.0828) rotate(42.6974) scale(41.0459 40.9691)">
<stop stop-color="#EDFC74"/>
<stop offset="0.552083" stop-color="#CBABFF"/>
</radialGradient>
</defs>
</svg>
